<?xml version="1.0" encoding="iso-8859-1"?>
<!-- Uploaded to: SVG Repo, www.svgrepo.com, Generator: SVG Repo Mixer Tools -->
<svg fill="#3e6c6c" height="800px" width="800px" version="1.1" id="Layer_1" xmlns="http://www.w3.org/2000/svg"
  xmlns:xlink="http://www.w3.org/1999/xlink" viewBox="0 0 490.659 490.659" xml:space="preserve">
  <g>
    <g>
      <path d="M490.13,364.85l-96-298.56c-0.96-3.093-3.307-5.547-6.4-6.72l-84.693-31.787h-0.107l-0.533-0.427
			c-0.107,0-0.213,0-0.32-0.107c-0.96-0.32-1.92-0.533-2.88-0.533c-0.213,0-0.533-0.107-0.533-0.107H191.997
			c0,0-0.32,0.107-0.533,0.107c-0.96,0-1.92,0.213-2.88,0.533c-0.107,0-0.213,0-0.427,0.107l-0.427,0.427h-0.107L102.93,59.356
			c-3.093,1.173-5.44,3.627-6.4,6.72l-96,298.667c-1.813,5.547,1.173,11.52,6.72,13.333l64,21.333
			c5.547,1.813,11.627-1.173,13.547-6.72c0-0.107,0.107-0.213,0.107-0.32l32.427-110.293v171.307c0,5.867,4.8,10.667,10.667,10.667
			h234.667c5.867,0,10.667-4.8,10.667-10.667v-171.2l32.427,110.187c1.707,5.653,7.573,8.853,13.227,7.253
			c0.107,0,0.213-0.107,0.32-0.107l64-21.333C488.957,376.37,491.943,370.396,490.13,364.85z M301.117,59.143l36.907,51.733
			l-25.6,25.6c-3.2,3.307-4.053,8.213-2.027,12.373l7.573,15.253l-61.973,77.547v-74.133L301.117,59.143z M234.663,442.716h-96
			V208.05c0-5.333-3.84-9.813-9.173-10.56c-5.227-0.747-10.24,2.453-11.733,7.573L67.517,375.73l-43.52-14.507L115.09,77.49
			l47.787-17.92l-32.96,46.187c-2.987,4.267-2.56,10.027,1.173,13.76l26.56,26.56l-7.147,14.4
			c-1.813,3.733-1.387,8.213,1.173,11.413l82.987,103.787V442.716z M234.663,241.65l-62.08-77.547l7.573-15.253
			c2.133-4.16,1.28-9.067-2.027-12.373l-25.6-25.6l36.907-51.733l45.227,108.373V241.65z M207.997,48.05h74.667l-37.333,89.6
			L207.997,48.05z M423.143,375.73l-50.24-170.773c-1.707-5.653-7.573-8.853-13.227-7.253c-4.48,1.387-7.68,5.44-7.68,10.24V442.61
			h-96V275.783l82.987-103.787c2.56-3.2,3.093-7.68,1.173-11.413l-7.253-14.507l26.56-26.56c3.733-3.733,4.16-9.493,1.173-13.76
			l-32.96-46.187l47.787,18.027l91.2,283.733L423.143,375.73z" />
    </g>
  </g>
</svg>