<?xml version="1.0" encoding="iso-8859-1"?>
<!-- Uploaded to: SVG Repo, www.svgrepo.com, Generator: SVG Repo Mixer Tools -->
<!DOCTYPE svg PUBLIC "-//W3C//DTD SVG 1.1//EN" "http://www.w3.org/Graphics/SVG/1.1/DTD/svg11.dtd">
<svg fill="#3e6c6c" height="800px" width="800px" version="1.1" id="Capa_1" xmlns="http://www.w3.org/2000/svg"
  xmlns:xlink="http://www.w3.org/1999/xlink" viewBox="0 0 211.969 211.969" xml:space="preserve">
  <path d="M140.374,211.969c-0.021,0-0.042-0.001-0.063-0.001H31.043c-0.853,0-1.666-0.363-2.234-0.998
	c-0.569-0.636-0.841-1.483-0.748-2.331L46.728,39.338c0.167-1.521,1.452-2.671,2.982-2.671h26.191V24.75
	C75.901,11.103,87.004,0,100.651,0c2.276,0,4.482,0.309,6.577,0.887C109.323,0.309,111.529,0,113.805,0
	c13.647,0,24.75,11.103,24.75,24.75v11.917h27.846c1.558,0,2.855,1.191,2.989,2.743l14.523,169.292
	c0.071,0.799-0.177,1.624-0.754,2.268c-0.529,0.59-1.238,0.922-1.97,0.986c0,0.001-0.005,0.001-0.009,0.001
	c-0.004-0.001-0.006-0.001-0.01,0.001c-0.003,0-0.006,0-0.009,0c-0.003,0.001-0.005,0-0.01,0.001c-0.001,0.001-0.005,0-0.009,0.001
	c-0.004-0.001-0.008-0.002-0.01,0.001c-0.004,0-0.004,0-0.01,0c-0.003,0-0.003,0.002-0.01,0.001c-0.004-0.001-0.005-0.001-0.01,0
	c-0.004,0.001-0.007,0-0.01,0.001c-0.006-0.001-0.009,0.001-0.01,0.001c-0.004,0-0.007,0-0.011,0
	c-0.004,0.001-0.007,0.001-0.011,0.001c-0.001,0-0.001,0-0.002,0c-0.051,0.002-0.102,0.003-0.152,0.003h-40.474
	C140.415,211.968,140.395,211.969,140.374,211.969z M145.267,205.968h27.816l-19.11-17.128L145.267,205.968z M34.392,205.968
	h103.201l8.328-111.096c0.002-0.039,0.005-0.077,0.009-0.116l3.904-52.089h-24.434V52.5c0,1.657-1.343,3-3,3s-3-1.343-3-3v-9.833
	h-37.5V52.5c0,1.657-1.343,3-3,3s-3-1.343-3-3v-9.833H52.397L34.392,205.968z M156.006,182.604l21.283,19.075L163.647,42.667h-7.796
	l-3.93,52.42L156.006,182.604z M148.22,144.47l-3.732,49.79l5.546-10.912L148.22,144.47z M125.401,36.667h7.154V24.75
	c0-9.206-6.67-16.884-15.431-18.456c5.076,4.536,8.276,11.129,8.276,18.456V36.667z M95.056,36.667h24.345V24.75
	c0-8.025-5.069-14.89-12.173-17.56c-7.104,2.67-12.172,9.534-12.172,17.56V36.667z M81.901,36.667h7.155V24.75
	c0-7.327,3.2-13.92,8.276-18.456c-8.761,1.572-15.431,9.25-15.431,18.456V36.667z" />
</svg>