<?xml version="1.0" encoding="iso-8859-1"?>
<!-- Uploaded to: SVG Repo, www.svgrepo.com, Generator: SVG Repo Mixer Tools -->
<svg fill="#3e6c6c" height="800px" width="800px" version="1.1" id="Layer_1" xmlns="http://www.w3.org/2000/svg"
  xmlns:xlink="http://www.w3.org/1999/xlink" viewBox="0 0 511.946 511.946" xml:space="preserve">
  <g transform="translate(1 1)">
    <g>
      <g>
        <path d="M508.84,198.359L418.475,83.35c0.2-15.761-22.454-32.348-81.156-50.538l-24.747-23.04l-0.329,0.329
				c-2.126-2.418-5.59-3.756-9.058-2.889l-1.707,0.853c-30.72,10.24-63.147,10.24-93.013,0l-1.707-0.853
				c-4.586-1.147-9.167,1.56-10.649,5.529l-20.925,20.925c-53,16.422-75.961,31.539-80.31,45.349L1.106,198.359
				c-3.413,3.413-2.56,9.387,1.707,11.947l59.733,42.667c2.56,1.707,5.973,1.707,8.533,0.853l48.64-25.71v266.35
				c0,5.12,3.413,8.533,8.533,8.533h256c5.12,0,8.533-3.413,8.533-8.533V229.469l46.08,24.357c2.56,1.707,5.973,0.853,8.533-0.853
				l59.733-42.667C511.4,207.745,512.253,201.772,508.84,198.359z M291.154,29.416l-26.368,58.01c-3.413,7.68-14.507,7.68-17.92,0
				l-26.368-58.009C243.485,34.512,267.319,34.511,291.154,29.416z M118.866,209.452L68.52,235.906l-47.787-34.133L104.262,95.23
				c4.221,4.267,7.953,12.964,11.191,24.622c1.707,6.827,2.56,14.507,3.413,23.04c0,2.56,0.853,5.12,0.853,7.68
				c0,0.727,0,1.289,0,1.707c0,0.563,0,0.853,0,0.853v56.32H118.866z M135.933,485.079v-332.8c0-0.853,0-1.707,0-3.413
				c0-2.56,0-5.12-0.853-8.533c-0.853-8.533-2.56-17.067-4.267-24.747c-3.997-15.99-9.555-28.338-17.892-35.015
				c0.844-0.844,1.697-1.697,3.385-3.385c11.093-8.533,31.573-17.92,64.853-28.16c1.707,0,2.56-0.853,3.413-2.56l16.747-16.747
				l29.333,64.533c9.387,20.48,39.253,20.48,48.64,0l29.333-64.533l16.747,16.747c0.853,0.853,2.56,1.707,3.413,2.56
				c33.28,10.24,53.76,19.627,64.853,28.16c1.707,0.853,2.56,2.56,3.413,3.413c-8.533,6.827-13.653,18.773-17.92,34.987
				c-1.707,7.68-3.413,16.213-4.267,24.747c0,2.56-0.853,5.973-0.853,8.533c0,1.707,0,2.56,0,3.413l0.853,332.8H135.933z
				 M442.28,235.052l-49.493-25.166v-57.607c0,0,0-0.853,0-2.56c0-2.56,0-5.12,0.853-7.68c0.853-7.68,1.707-15.36,3.413-23.04
				c2.419-10.884,6.125-19.177,10.203-23.705l82.81,105.625L442.28,235.052z" />
        <path d="M350.973,209.452l-63.147-7.68l-23.893-51.2c-3.413-6.827-12.8-6.827-15.36,0l-23.893,51.2l-63.147,7.68
				c-7.68,0.853-10.24,10.24-4.267,15.36l47.787,39.253l-6.827,58.027c-0.853,7.68,7.68,11.947,13.653,7.68l44.373-30.72
				l44.373,30.72c5.973,4.267,14.507-0.853,13.653-7.68l-6.827-58.027l47.787-39.253
				C361.213,219.692,358.653,210.305,350.973,209.452z M292.946,253.825c-2.56,1.707-3.413,5.12-3.413,7.68l5.12,43.52
				l-34.133-23.893c-2.56-1.707-6.827-1.707-9.387,0l-34.133,23.893l4.267-43.52c0-2.56-0.853-5.973-3.413-7.68l-35.84-29.013
				l48.64-5.973c2.56,0,5.12-2.56,6.827-5.12l17.92-38.4l17.92,38.4c0.853,2.56,3.413,4.267,6.827,5.12l48.64,5.973L292.946,253.825
				z" />
      </g>
    </g>
  </g>
</svg>