<?xml version="1.0" encoding="utf-8"?>
<!-- Uploaded to: SVG Repo, www.svgrepo.com, Generator: SVG Repo Mixer Tools -->
<!DOCTYPE svg PUBLIC "-//W3C//DTD SVG 1.1//EN" "http://www.w3.org/Graphics/SVG/1.1/DTD/svg11.dtd">
<svg fill="#3e6c6c" width="800px" height="800px" viewBox="0 0 1000 1000" version="1.1"
  xmlns="http://www.w3.org/2000/svg" xmlns:xlink="http://www.w3.org/1999/xlink" enable-background="new 0 0 1000 1000"
  xml:space="preserve">

  <g>

    <g transform="translate(0.000000,512.000000) scale(0.100000,-0.100000)">

      <path
        d="M2177.2,4999.4c-98.4-50.2-90.7-225.8,11.6-264.4c32.8-13.5,1040.1-17.4,2875.3-15.4c2666.9,5.8,2825.2,7.7,2858,40.5c44.4,44.4,44.4,175.6,0,220c-32.8,32.8-191.1,34.7-2865.7,38.6C2817.9,5022.5,2215.8,5018.7,2177.2,4999.4z" />

      <path
        d="M2246.7,4364.5l-48.2-44.4L1733.4-37.3c-256.7-2398.7-461.2-4380.5-455.4-4405.6c7.7-25.1,30.9-57.9,56-73.3c28.9-19.3,430.3-61.7,1335.4-144.7c1549.6-140.9,1466.6-137,1512.9-88.8c30.9,30.9,119.6,470.9,455.4,2257.8c229.6,1221.5,420.7,2221.1,424.5,2225c7.7,9.6-17.4,137,463.1-2317.6c227.7-1165.6,418.8-2126.6,424.5-2136.2c7.7-11.6,36.7-30.9,63.7-46.3c48.3-25.1,196.8-13.5,1325.7,96.5c700.5,69.5,1292.9,129.3,1318,135.1c23.2,3.9,52.1,28.9,63.7,52.1c13.5,30.9-86.8,1277.5-357,4423l-376.3,4380.5l-50.2,44.4l-50.2,42.5H5091.1H2294.9L2246.7,4364.5z M6524.9,4022.9c19.3-183.3,69.5-401.4,142.8-619.5c208.4-623.3,604-1184.9,1117.3-1588.2c113.9-88.8,119.6-98.4,131.2-193c5.8-56,54-604,108-1219.6c54-615.6,117.7-1358.5,144.7-1649.9c181.4-2051.3,264.4-3014.3,258.6-3020c-17.4-15.4-2207.6-220-2219.2-206.5c-5.8,7.7-73.3,335.8-150.5,727.5C5430.8-496.6,5208.8,628.5,5189.6,651.6c-56,67.5-231.6,50.2-262.4-23.2c-7.7-19.3-229.6-1173.3-490.2-2564.6c-262.5-1393.3-482.4-2537.6-486.3-2543.4c-13.5-11.6-2348.5,231.6-2365.9,247c-5.8,7.7,7.7,175.6,28.9,374.4c272.1,2412.2,623.3,5509.4,631,5555.8s44.4,86.8,160.2,177.5c173.7,137,494,461.2,625.2,633c202.6,264.4,393.7,629.1,505.6,961c54,162.1,127.4,496,127.4,578.9v50.2h733.3h733.3v-81.1c-1.9-46.3-17.4-517.2-36.7-1047.9c-34.7-959.1-34.7-966.8-83-1072.9c-57.9-127.4-138.9-193-258.6-206.5c-160.2-17.4-229.6-175.6-123.5-281.7c44.4-46.3,210.3-63.7,320.3-32.8c193,52.1,364.7,235.4,418.8,445.8c21.2,81.1,30.9,333.8,40.5,1080.7c7.7,536.5,17.4,1032.4,23.2,1105.7l11.6,129.3h536.5h534.5L6524.9,4022.9z M3393,4051.9c0-79.1-56-316.5-115.8-495.9c-106.1-318.4-281.7-625.2-534.6-937.9c-131.2-164-407.2-440-422.6-424.5c-7.7,7.7,166,1842.9,177.5,1881.5c3.8,17.4,111.9,23.2,451.6,23.2H3393V4051.9z M7704,3978.5c63.7-640.7,166-1823.6,162.1-1854.5c-3.9-28.9-50.2,11.6-198.8,177.5c-333.8,374.4-555.8,717.9-694.7,1080.7c-83,216.1-142.8,472.8-144.7,615.6v100.4h432.3h432.3L7704,3978.5z" />

    </g>

  </g>
</svg>