<?xml version="1.0" encoding="iso-8859-1"?>
<!-- Uploaded to: SVG Repo, www.svgrepo.com, Generator: SVG Repo Mixer Tools -->
<svg fill="#3e6c6c" height="800px" width="800px" version="1.1" id="groom-bride-wedding-day-couple"
  xmlns="http://www.w3.org/2000/svg" xmlns:xlink="http://www.w3.org/1999/xlink" viewBox="0 0 64 64"
  xml:space="preserve">
  <path d="M15,14c3.86,0,7-3.141,7-7s-3.14-7-7-7c-3.86,0-7,3.141-7,7S11.14,14,15,14z M15,2c2.757,0,5,2.243,5,5s-2.243,5-5,5
	c-2.757,0-5-2.243-5-5S12.243,2,15,2z" />
  <circle cx="15" cy="26" r="1" />
  <circle cx="15" cy="30" r="1" />
  <circle cx="15" cy="34" r="1" />
  <circle cx="15" cy="38" r="1" />
  <path d="M46,18c3.86,0,7-3.141,7-7s-3.14-7-7-7c-3.86,0-7,3.141-7,7S42.14,18,46,18z M46,6c2.757,0,5,2.243,5,5s-2.243,5-5,5
	c-2.757,0-5-2.243-5-5S43.243,6,46,6z" />
  <path d="M59.761,44.234c-0.566-2.49-2.201-4.573-4.483-5.714c-2.138-1.069-3.471-3.197-3.572-5.521H56c0.552,0,1-0.447,1-1V11
	c0-6.065-4.935-11-11-11c-6.065,0-11,4.935-11,11v12.586l-5,5V21c0-2.757-2.243-5-5-5h-6v0.005c-0.153,0-0.306,0.03-0.447,0.101
	L15,17.882l-3.553-1.776c-0.141-0.07-0.294-0.101-0.447-0.101V16H5c-2.757,0-5,2.243-5,5v18c0,0.553,0.448,1,1,1h5v19
	c0,2.757,2.243,5,5,5h8c2.757,0,5-2.243,5-5V40h5c0.552,0,1-0.447,1-1v-1.586l8.42-8.42c0.372,0.85,0.973,1.576,1.726,2.102
	l0.1,0.701c0.396,2.77-1.021,5.473-3.524,6.725c-2.283,1.141-3.917,3.224-4.483,5.714l-4.214,18.544
	c-0.067,0.297,0.004,0.607,0.193,0.846C28.408,63.861,28.696,64,29,64h34c0.304,0,0.592-0.139,0.782-0.376
	c0.189-0.238,0.261-0.549,0.193-0.846L59.761,44.234z M18,18.618v1.764L16.236,19.5L18,18.618z M12,18.618l1.764,0.882L12,20.382
	V18.618z M28,38h-4V23h-2v36c0,1.654-1.346,3-3,3h-3V45h1v-2h-4v2h1v17h-3c-1.654,0-3-1.346-3-3V23H6v15H2V21c0-1.654,1.346-3,3-3h5
	v4c0,0.347,0.18,0.668,0.474,0.851C10.635,22.95,10.817,23,11,23c0.153,0,0.306-0.035,0.447-0.105L15,21.118l3.553,1.776
	C18.694,22.965,18.847,23,19,23c0.183,0,0.365-0.05,0.526-0.149C19.82,22.668,20,22.347,20,22v-4h5c1.654,0,3,1.346,3,3V38z
	 M30,31.414l6.707-6.707C36.894,24.52,37,24.266,37,24V11c0-4.963,4.038-9,9-9c4.962,0,9,4.037,9,9v20h-3.031
	C53.194,30.088,54,28.641,54,27c0-2.757-2.243-5-5-5c-1.086,0-2.138,0.363-3,1.019C45.138,22.363,44.086,22,43,22
	c-2.599,0-4.717,2.001-4.953,4.539L30,34.586V31.414z M43,24c0.864,0,1.662,0.369,2.247,1.038c0.38,0.434,1.126,0.434,1.506,0
	C47.338,24.369,48.136,24,49,24c1.654,0,3,1.346,3,3s-1.346,3-3,3c-0.864,0-1.662-0.369-2.247-1.038
	c-0.19-0.217-0.464-0.342-0.753-0.342c-0.289,0-0.563,0.125-0.753,0.342C44.662,29.631,43.864,30,43,30c-1.654,0-3-1.346-3-3
	S41.346,24,43,24z M30.253,62l3.937-17.322c0.433-1.904,1.682-3.496,3.428-4.368c3.15-1.575,4.961-4.908,4.635-8.385
	C42.498,31.962,42.744,32,43,32c1.086,0,2.138-0.363,3-1.019C46.862,31.637,47.914,32,49,32c0.256,0,0.502-0.038,0.748-0.076
	c-0.326,3.477,1.485,6.81,4.635,8.385c1.746,0.872,2.995,2.464,3.428,4.368L61.747,62H30.253z" />
</svg>