<?xml version="1.0" standalone="no"?>
<!DOCTYPE svg PUBLIC "-//W3C//DTD SVG 20010904//EN"
 "http://www.w3.org/TR/2001/REC-SVG-20010904/DTD/svg10.dtd">
<svg version="1.0" xmlns="http://www.w3.org/2000/svg"
 width="512.000000pt" height="512.000000pt" viewBox="0 0 512.000000 512.000000"
 preserveAspectRatio="xMidYMid meet">
<metadata>
Created by potrace 1.14, written by Peter Selinger 2001-2017
</metadata>
<g transform="translate(0.000000,512.000000) scale(0.100000,-0.100000)"
fill="#000000" stroke="none">
<path d="M2136 4990 c-202 -70 -397 -143 -432 -160 -80 -41 -181 -124 -240
-198 -25 -31 -66 -100 -92 -153 -44 -91 -50 -98 -87 -109 -69 -21 -189 -88
-257 -144 -78 -65 -149 -157 -195 -252 -31 -65 -37 -72 -76 -83 -113 -33 -274
-149 -352 -253 -77 -102 -105 -170 -260 -627 -158 -465 -162 -481 -118 -540
44 -58 52 -60 399 -108 181 -25 330 -46 331 -47 1 -1 -4 -123 -12 -271 -8
-149 -30 -641 -51 -1095 l-36 -825 22 -42 c16 -29 35 -49 65 -63 41 -20 51
-20 1303 -18 l1261 3 28 21 c57 42 68 77 66 199 -2 61 -5 149 -9 197 l-6 87
215 3 c237 3 241 4 291 72 19 26 21 40 19 179 -2 84 -5 176 -9 205 l-5 52 203
0 c112 0 220 5 240 10 51 15 96 54 109 98 8 28 2 223 -25 827 -19 435 -38 818
-40 851 l-5 62 47 7 c26 4 61 16 79 26 32 20 73 90 73 125 0 11 -20 80 -45
154 -25 73 -43 135 -41 137 1 2 117 19 257 39 159 22 267 42 289 53 41 21 80
82 80 128 0 35 -284 883 -320 953 -79 155 -215 288 -365 356 -94 44 -768 274
-800 274 -17 0 -64 -16 -105 -36 -41 -19 -113 -47 -160 -62 -80 -24 -97 -26
-280 -26 -222 0 -275 10 -437 83 -50 23 -104 41 -119 41 -16 -1 -195 -59 -398
-130z m351 -159 c26 -109 69 -201 132 -285 l48 -63 -68 -6 c-151 -13 -347 26
-500 97 -42 20 -88 36 -102 36 -14 0 -116 -31 -227 -70 -111 -38 -204 -70
-207 -70 -2 0 11 21 29 46 40 56 123 126 192 161 46 24 647 240 671 242 6 0
20 -39 32 -88z m1529 -15 c165 -57 317 -112 338 -121 104 -44 210 -140 273
-246 36 -60 317 -880 305 -890 -7 -6 -441 -69 -478 -69 -20 0 -30 25 -99 230
-87 257 -129 341 -226 445 -109 116 -195 163 -476 260 -79 27 -143 52 -143 56
0 3 14 24 31 45 73 92 159 285 159 356 0 21 7 38 15 38 2 0 137 -47 301 -104z
m-1301 54 c215 -74 509 -74 746 0 l61 19 -7 -37 c-13 -71 -73 -178 -135 -241
-33 -34 -66 -61 -73 -61 -7 0 -50 14 -95 30 -46 17 -97 30 -115 30 -18 0 -70
-18 -117 -39 -83 -38 -86 -39 -114 -22 -42 24 -133 126 -160 179 -19 37 -56
143 -56 159 0 5 4 4 65 -17z m-782 -513 c10 -72 65 -210 112 -282 25 -37 45
-70 45 -73 0 -10 -206 7 -280 23 -41 8 -113 32 -160 51 -47 20 -105 43 -129
51 l-43 16 -197 -67 c-108 -38 -205 -70 -216 -73 -33 -9 84 104 148 144 54 33
693 265 708 257 3 -2 9 -23 12 -47z m1616 -81 c134 -48 271 -101 305 -118 85
-45 193 -155 238 -243 46 -91 304 -853 292 -864 -9 -7 -445 -74 -449 -69 -2 2
-39 110 -83 240 -93 271 -119 327 -197 425 -108 136 -213 201 -475 293 -96 33
-176 63 -178 65 -2 2 7 19 21 37 56 73 137 271 137 332 0 13 3 25 6 29 3 3 36
-5 73 -18 36 -13 176 -62 310 -109z m-514 -471 c138 -48 277 -101 310 -118 78
-41 191 -155 232 -233 18 -34 95 -246 172 -472 l139 -410 -31 -6 c-86 -15
-550 -77 -553 -73 -2 2 -10 121 -17 264 -11 212 -17 266 -30 287 -32 48 -102
46 -138 -4 -18 -24 -18 -43 16 -730 19 -388 43 -912 54 -1165 12 -253 23 -499
27 -547 l6 -88 -1186 0 -1186 0 0 53 c0 58 44 1016 86 1883 27 543 27 572 11
597 -32 49 -102 47 -138 -3 -16 -21 -20 -63 -30 -287 -7 -145 -16 -263 -19
-263 -21 0 -573 79 -576 83 -8 8 268 812 299 872 41 78 173 211 247 248 56 27
651 237 673 237 7 0 18 -27 25 -65 39 -208 167 -392 325 -470 168 -83 394 -83
564 0 74 37 164 123 217 208 45 72 99 215 112 294 l6 41 67 -23 c36 -13 179
-62 316 -110z m-1305 57 c88 -24 110 -26 300 -26 215 0 213 -1 418 60 21 6 22
4 16 -22 -33 -143 -127 -270 -240 -325 -56 -28 -78 -33 -162 -37 -213 -10
-354 81 -433 280 -34 87 -37 113 -11 103 9 -3 60 -18 112 -33z m2484 -1084 c5
-52 57 -1185 56 -1225 0 -10 -46 -13 -195 -13 -149 0 -195 3 -195 13 0 6 -9
196 -20 421 -11 226 -18 411 -17 412 1 2 31 7 65 13 76 12 118 40 143 95 25
55 24 63 -20 199 -45 134 -52 119 69 136 116 15 108 19 114 -51z m-544 -464
c0 -53 47 -1092 54 -1206 l5 -78 -179 0 c-165 0 -180 1 -180 18 0 33 -40 888
-50 1071 -6 101 -8 187 -5 190 6 5 280 47 333 50 20 1 22 -4 22 -45z m610
-1034 l0 -80 -189 0 -188 0 -7 38 c-3 20 -6 56 -6 80 l0 42 195 0 195 0 0 -80z
m-1056 -971 c3 -17 6 -56 6 -85 l0 -54 -1201 0 -1201 0 6 31 c3 17 6 56 6 85
l0 54 1189 0 1189 0 6 -31z"/>
<path d="M1029 2847 c-59 -39 -69 -73 -69 -238 0 -139 1 -146 23 -167 33 -31
80 -29 106 4 19 24 21 40 21 150 l0 124 124 0 c117 0 127 2 152 23 33 28 37
76 9 107 -17 18 -30 20 -175 20 -147 0 -159 -2 -191 -23z"/>
<path d="M2670 2850 c-25 -25 -26 -71 -1 -101 18 -23 26 -24 155 -27 l136 -4
0 -129 c0 -116 2 -131 20 -149 11 -11 33 -20 50 -20 17 0 39 9 50 20 18 18 20
33 20 171 0 244 -14 259 -254 259 -143 0 -158 -2 -176 -20z"/>
<path d="M1375 2559 c-40 -12 -58 -27 -84 -69 -21 -35 -21 -39 -21 -765 0
-828 -5 -777 81 -823 l43 -23 652 3 c641 3 653 3 680 24 15 11 37 33 48 48 21
27 21 36 21 771 0 735 0 744 -21 772 -11 15 -40 38 -64 51 l-44 22 -631 -1
c-353 0 -643 -5 -660 -10z m1275 -614 c0 -261 -3 -475 -7 -475 -4 0 -45 37
-90 82 -82 81 -82 82 -141 86 -38 3 -68 -1 -85 -9 -14 -8 -76 -61 -137 -118
l-112 -104 -106 105 c-59 58 -117 111 -129 117 -35 18 -114 13 -148 -8 -16
-10 -83 -69 -147 -130 -65 -61 -120 -111 -123 -111 -3 0 -5 234 -5 520 l0 520
615 0 615 0 0 -475z m-635 -685 l230 -230 -413 0 -412 0 0 69 0 69 173 161
c94 88 177 161 182 161 6 0 114 -103 240 -230z m512 108 l123 -123 0 -107 0
-108 -98 0 -97 0 -135 135 -135 136 100 94 c55 52 104 94 110 95 5 0 65 -55
132 -122z"/>
<path d="M1738 2250 c-80 -24 -142 -92 -157 -173 -9 -51 1 -130 21 -156 61
-81 117 -113 197 -113 125 0 211 75 228 197 9 69 -13 132 -66 185 -63 62 -144
84 -223 60z m117 -165 c27 -26 32 -70 12 -96 -48 -63 -137 -36 -137 42 0 70
77 103 125 54z"/>
<path d="M986 1009 c-26 -20 -26 -21 -26 -167 0 -166 10 -200 69 -239 32 -21
44 -23 191 -23 145 0 158 2 175 20 25 28 23 76 -4 103 -19 20 -33 22 -151 25
l-130 4 0 124 c0 119 -1 126 -25 149 -30 30 -64 32 -99 4z"/>
<path d="M2980 1010 c-18 -18 -20 -33 -20 -149 l0 -129 -136 -4 c-129 -3 -137
-4 -155 -27 -25 -30 -24 -76 1 -101 18 -18 33 -20 178 -20 138 0 161 2 189 20
53 32 66 70 71 202 5 135 -1 181 -29 209 -25 25 -74 24 -99 -1z"/>
</g>
</svg>
