<svg xmlns="http://www.w3.org/2000/svg" viewBox="0 0 521.06 521.06">
  <defs>
    <style>
      .cls-1 {
        fill: #debe92;
      }
    </style>
  </defs>
  <g id="Layer_2" data-name="Layer 2">
    <g id="Layer_1-2" data-name="Layer 1">
      <path class="cls-1"
        d="M260.53,521.06C116.64,521.06,0,404.41,0,260.53S116.64,0,260.53,0,521.06,116.64,521.06,260.53,404.41,521.06,260.53,521.06Zm-.24-225.84c14.49.22,35.38-18.24,45.88-25.9,90.68-65.81,89.74-66,114.12-84.93V159.22a24,24,0,0,0-24-24h-272a24,24,0,0,0-24,24v25.17c24.35,19,23.42,19.12,114.11,84.93C224.92,277,245.78,295.44,260.29,295.22Zm64.71,0c-13.68,10-37.83,32.16-64.72,32-26.72.13-50.53-21.67-64.69-32-62-45-81.35-59.42-95.3-70.22V367.22a24,24,0,0,0,24,24h272a24,24,0,0,0,24-24V225C406.33,235.79,387,250.23,325,295.19Z" />
    </g>
  </g>
</svg>