<svg xmlns="http://www.w3.org/2000/svg" viewBox="0 0 521.06 521.06">
  <defs>
    <style>
      .cls-1 {
        fill: #debe92;
      }
    </style>
  </defs>
  <g id="Layer_2" data-name="Layer 2">
    <g id="Layer_1-2" data-name="Layer 1">
      <path class="cls-1"
        d="M336.41,111H184.16a10.9,10.9,0,0,0-10.87,10.87V404.59a10.9,10.9,0,0,0,10.87,10.87H336.41a10.9,10.9,0,0,0,10.87-10.87V121.85A10.9,10.9,0,0,0,336.41,111ZM260.29,393.71A21.75,21.75,0,1,1,282,372,21.73,21.73,0,0,1,260.29,393.71Z" />
      <path class="cls-1"
        d="M260.53,0C116.64,0,0,116.64,0,260.53S116.64,521.06,260.53,521.06,521.06,404.41,521.06,260.53,404.41,0,260.53,0ZM369,404.59a32.63,32.63,0,0,1-32.62,32.62H184.16a32.63,32.63,0,0,1-32.62-32.62V121.85a32.63,32.63,0,0,1,32.62-32.62H336.41A32.63,32.63,0,0,1,369,121.85Z" />
    </g>
  </g>
</svg>